<?xml version="1.0" encoding="UTF-8"?>
<svg width="25px" height="31px" viewBox="0 0 25 31" version="1.1" xmlns="http://www.w3.org/2000/svg" xmlns:xlink="http://www.w3.org/1999/xlink">
    <title>Tochnyy inzhenernyy raschet sistemy</title>
    <g id="services-pages" stroke="none" stroke-width="1" fill="none" fill-rule="evenodd">
        <g id="icons-mini" transform="translate(-1155.000000, -260.000000)" fill="#FFFFFF" fill-rule="nonzero">
            <g id="8" transform="translate(1155.000000, 260.000000)">
                <path d="M22.6416667,-9.23705556e-14 C23.4600192,-9.23705556e-14 24.1225896,0.643937085 24.1936827,1.45519665 L24.2,1.6 L24.1,13.599 L24.1,27.9180842 C24.1,29.0652269 23.2010538,30.0140962 22.073319,30.0944381 L21.9181818,30.0999474 L4.46363636,30.0999474 C4.26692678,30.1026732 4.083958,29.999323 3.98479177,29.8294166 C3.88562554,29.6595102 3.88562554,29.4493709 3.98479177,29.2794645 C4.083958,29.1095581 4.26692678,29.0062079 4.46363636,29.0089884 L4.46363636,29.0089884 L11.5545455,29.0089884 L11.5545455,18.6453984 L1.19090909,18.6453984 L1.19090909,27.9180842 C1.19090909,28.5318815 1.66802009,29.0089884 2.28181818,29.0089884 C2.47852776,29.0062079 2.66149654,29.1095581 2.76066277,29.2794645 C2.859829,29.4493709 2.859829,29.6595102 2.76066277,29.8294166 C2.66149654,29.999323 2.47852776,30.1026732 2.28181818,30.0999474 C1.08252599,30.0999474 0.1,29.1173698 0.1,27.9180842 L0.1,27.9180842 L0.1,12.847 L7.2475359e-13,1.6 C7.2475359e-13,0.770704626 0.617106373,0.0806955757 1.41562398,0.0065874571 L1.55833333,-9.23705556e-14 L22.6416667,-9.23705556e-14 Z M23.0090909,18.6453984 L12.6454545,18.6453984 L12.6454545,29.0089884 L21.9181818,29.0089884 C22.5319799,29.0089884 23.0090909,28.5318815 23.0090909,27.9180842 L23.0090909,27.9180842 L23.0090909,18.6453984 Z M8.48636364,21.0914102 C8.72206081,21.0572479 8.95267692,21.1799384 9.05605313,21.3944918 C9.15942934,21.6090453 9.11166783,21.8658626 8.93806818,22.028906 L8.93806818,22.028906 L7.13977273,23.8271934 L8.93806818,25.6169582 C9.08113425,25.7530196 9.13951528,25.9557655 9.09071606,26.1470744 C9.04191683,26.3383833 8.89355451,26.4883934 8.70279565,26.5393033 C8.51203678,26.5902132 8.30865727,26.5340762 8.17102273,26.3925229 L8.17102273,26.3925229 L6.37272727,24.5942355 L4.57443182,26.3925229 C4.43679728,26.5340762 4.23341777,26.5902132 4.0426589,26.5393033 C3.85190003,26.4883934 3.70353772,26.3383833 3.65473849,26.1470744 C3.60593926,25.9557655 3.66432029,25.7530196 3.80738636,25.6169582 L3.80738636,25.6169582 L5.60568182,23.8271934 L3.80738636,22.028906 C3.65309341,21.8815951 3.59882554,21.6578633 3.66848005,21.4562327 C3.73813457,21.2546021 3.91892939,21.1120734 4.13125,21.0914102 C4.29588794,21.075403 4.45889634,21.1349635 4.57443182,21.2533413 L4.57443182,21.2533413 L6.37272727,23.0516287 L8.17102273,21.2533413 C8.25517821,21.1657642 8.36615401,21.1087769 8.48636364,21.0914102 Z M15.3471591,24.6447721 L15.3727273,24.6453716 L20.2818182,24.6453716 C20.4785278,24.642591 20.6614965,24.7459412 20.7606628,24.9158476 C20.859829,25.085754 20.859829,25.2958934 20.7606628,25.4657998 C20.6614965,25.6357062 20.4785278,25.7390564 20.2818182,25.7362758 L20.2818182,25.7362758 L15.3727273,25.7362758 C15.177831,25.7454506 14.9928481,25.6499392 14.8874762,25.4857281 C14.7821044,25.3215171 14.7723564,25.1135609 14.8619051,24.940213 C14.9514539,24.7668651 15.126691,24.6544684 15.3215909,24.6453716 C15.338627,24.6445722 15.3556912,24.6445722 15.3727273,24.6453716 Z M15.3471591,21.9175115 L15.3727273,21.9181111 L20.2818182,21.9181111 C20.4785278,21.9153305 20.6614965,22.0186807 20.7606628,22.1885871 C20.859829,22.3584935 20.859829,22.5686328 20.7606628,22.7385393 C20.6614965,22.9084457 20.4785278,23.0117958 20.2818182,23.0090153 L20.2818182,23.0090153 L15.3727273,23.0090153 C15.177831,23.0181901 14.9928481,22.9226786 14.8874762,22.7584676 C14.7821044,22.5942565 14.7723564,22.3863004 14.8619051,22.2129525 C14.9514539,22.0396046 15.126691,21.9272079 15.3215909,21.9181111 C15.338627,21.9173117 15.3556912,21.9173117 15.3727273,21.9181111 Z M11.5545455,7.19090421 L2.28181818,7.19090421 C1.71564236,7.19090421 1.26576636,7.59685165 1.19936618,8.14156982 L1.2,16.6 L1.19,16.599 L1.19090909,17.5544942 L11.5545455,17.5544942 L11.5545455,7.19090421 Z M21.9181818,7.19090421 L12.6454545,7.19090421 L12.6454545,17.5544942 L23.0090909,17.5544942 L23.009,16.599 L23,16.6 L23.0013624,8.14768461 C22.9375956,7.59989245 22.4864742,7.19090421 21.9181818,7.19090421 L21.9181818,7.19090421 Z M17.7676136,9.36418995 C17.9237941,9.34698542 18.0798087,9.39795993 18.195702,9.50405893 C18.3115952,9.61015794 18.3761112,9.76107662 18.3727273,9.91816474 L18.3727273,9.91816474 L18.3727273,11.8272471 L20.2818182,11.8272471 C20.4785278,11.8244666 20.6614965,11.9278167 20.7606628,12.0977231 C20.859829,12.2676296 20.859829,12.4777689 20.7606628,12.6476753 C20.6614965,12.8175817 20.4785278,12.9209319 20.2818182,12.9181513 L20.2818182,12.9181513 L18.3727273,12.9181513 L18.3727273,14.8272337 C18.3755078,15.0239424 18.2721572,15.2069104 18.10225,15.3060761 C17.9323429,15.4052419 17.7222026,15.4052419 17.5522954,15.3060761 C17.3823882,15.2069104 17.2790376,15.0239424 17.2818182,14.8272337 L17.2818182,14.8272337 L17.2818182,12.9181513 L15.3727273,12.9181513 C15.177831,12.9273261 14.9928481,12.8318147 14.8874762,12.6676036 C14.7821044,12.5033926 14.7723564,12.2954364 14.8619051,12.1220885 C14.9514539,11.9487406 15.126691,11.8363439 15.3215909,11.8272471 C15.338627,11.8264477 15.3556912,11.8264477 15.3727273,11.8272471 L15.3727273,11.8272471 L17.2818182,11.8272471 L17.2818182,9.91816474 C17.2757379,9.63552366 17.4865976,9.39507072 17.7676136,9.36418995 Z M3.89261364,11.8266476 L3.91818182,11.8272471 L8.82727273,11.8272471 C9.02398231,11.8244666 9.20695109,11.9278167 9.30611732,12.0977231 C9.40528355,12.2676296 9.40528355,12.4777689 9.30611732,12.6476753 C9.20695109,12.8175817 9.02398231,12.9209319 8.82727273,12.9181513 L8.82727273,12.9181513 L3.91818182,12.9181513 C3.72328552,12.9273261 3.53830268,12.8318147 3.43293079,12.6676036 C3.3275589,12.5033926 3.31781091,12.2954364 3.40735966,12.1220885 C3.4969084,11.9487406 3.6721455,11.8363439 3.86704545,11.8272471 C3.88408154,11.8264477 3.90114574,11.8264477 3.91818182,11.8272471 Z M22.6416667,1.2 L1.55833333,1.2 C1.39028532,1.2 1.24197237,1.33284203 1.20751988,1.51778451 L1.2,1.6 L1.19978754,6.38946097 C1.51924356,6.20546351 1.88889705,6.1 2.28181818,6.1 L2.28181818,6.1 L21.9181818,6.1 C22.3115136,6.1 22.681529,6.20568403 23.0012138,6.39003802 L23,1.6 C23,1.40181946 22.8726931,1.24420487 22.7122046,1.20789779 L22.6416667,1.2 Z" id="Tochnyy-inzhenernyy-raschet-sistemy"></path>
            </g>
        </g>
    </g>
</svg>