<?xml version="1.0" encoding="UTF-8"?>
<svg width="30px" height="30px" viewBox="0 0 30 30" version="1.1" xmlns="http://www.w3.org/2000/svg" xmlns:xlink="http://www.w3.org/1999/xlink">
    <title>Garantiya professionalnogo montazha</title>
    <g id="services-pages" stroke="none" stroke-width="1" fill="none" fill-rule="evenodd">
        <g id="icons-mini" transform="translate(-120.000000, -600.000000)" fill="#FFFFFF" fill-rule="nonzero">
            <g id="17" transform="translate(120.000000, 600.000000)">
                <path d="M14.7776667,0 C15.4833333,0 16.1643333,0.306666667 16.6366667,0.835 L16.6366667,0.835 L17.2443333,1.51033333 C17.5203333,1.82366667 17.993,1.92766667 18.3796667,1.76166667 L18.3796667,1.76166667 L19.2146667,1.406 C19.528,1.271 19.8656667,1.20333333 20.2033333,1.20333333 C21.3143333,1.20333333 22.303,1.94566667 22.61,3.00766667 L22.61,3.00766667 L22.8736667,3.87366667 C22.9896667,4.28466667 23.3586667,4.57366667 23.7883333,4.59233333 L23.7883333,4.59233333 L24.6973333,4.629 C25.4086667,4.66 26.0786667,4.997 26.5326667,5.556 C26.9806667,6.11433333 27.1706667,6.83866667 27.054,7.545 L27.054,7.545 L26.901,8.441 C26.8336667,8.865 27.0353333,9.28233333 27.4163333,9.485 L27.4163333,9.485 L28.2146667,9.91466667 C28.8473333,10.2523333 29.3013333,10.847 29.4673333,11.547 C29.6323333,12.247 29.485,12.9836667 29.074,13.567 L29.074,13.567 L28.5526667,14.31 C28.3006667,14.66 28.307,15.132 28.5583333,15.476 L28.5583333,15.476 L29.0923333,16.2126667 C29.5166667,16.7896667 29.6703333,17.526 29.5166667,18.226 C29.3626667,18.9256667 28.915,19.5273333 28.2883333,19.877 L28.2883333,19.877 L27.4966667,20.3196667 C27.1223333,20.528 26.9196667,20.9513333 26.9993333,21.3753333 L26.9993333,21.3753333 L27.1653333,22.2656667 C27.2936667,22.9713333 27.1163333,23.6953333 26.6736667,24.2603333 C26.232,24.8246667 25.5693333,25.169 24.8506667,25.212 L24.8506667,25.212 L23.9423333,25.2666667 C23.5126667,25.292 23.144,25.5863333 23.0333333,25.9973333 L23.0333333,25.9973333 L22.794,26.8753333 C22.4996667,27.9616667 21.505,28.717 20.382,28.717 C20.0566667,28.717 19.7366667,28.6493333 19.43,28.5266667 L19.43,28.5266667 L18.5893333,28.1826667 C18.1963333,28.0233333 17.73,28.134 17.4533333,28.453 L17.4533333,28.453 L16.8586667,29.1406667 C16.3793333,29.6873333 15.6923333,30 14.9673333,30 C14.2616667,30 13.5806667,29.6933333 13.1063333,29.165 L13.1063333,29.165 L12.4983333,28.4903333 C12.2226667,28.177 11.7496667,28.073 11.3623333,28.2383333 L11.3623333,28.2383333 L10.5283333,28.5943333 C10.215,28.7296667 9.87733333,28.797 9.53966667,28.797 C8.429,28.797 7.44,28.054 7.13333333,26.992 L7.13333333,26.992 L6.882,26.1203333 C6.76566667,25.709 6.397,25.4206667 5.96733333,25.402 L5.96733333,25.402 L5.05833333,25.3653333 C4.34733333,25.3346667 3.67733333,24.9976667 3.22333333,24.4386667 C2.775,23.8803333 2.58533333,23.155 2.70166667,22.4496667 L2.70166667,22.4496667 L2.85466667,21.5536667 C2.92233333,21.1296667 2.72066667,20.7123333 2.33966667,20.5096667 L2.33966667,20.5096667 L1.54133333,20.08 C0.909,19.7426667 0.455,19.1476667 0.289,18.4476667 C0.123666667,17.7476667 0.271,17.0113333 0.682,16.4276667 L0.682,16.4276667 L1.20366667,15.6846667 C1.456,15.335 1.44933333,14.863 1.198,14.5186667 L1.198,14.5186667 L0.664,13.788 C0.24,13.211 0.0863333333,12.4746667 0.24,11.7746667 C0.393666667,11.0746667 0.841333333,10.4733333 1.468,10.1233333 L1.468,10.1233333 L2.25966667,9.68133333 C2.634,9.473 2.83666667,9.049 2.757,8.62566667 L2.757,8.62566667 L2.591,7.73533333 C2.46266667,7.03566667 2.64,6.30466667 3.08266667,5.74 C3.52466667,5.17533333 4.19366667,4.82533333 4.90566667,4.78866667 L4.90566667,4.78866667 L5.80833333,4.73333333 C6.238,4.709 6.606,4.41433333 6.71666667,4.00266667 L6.71666667,4.00266667 L6.956,3.12533333 C7.25133333,2.039 8.246,1.28366667 9.369,1.28366667 C9.69466667,1.28366667 10.0136667,1.351 10.3203333,1.474 L10.3203333,1.474 L11.1616667,1.81733333 C11.554,1.97666667 12.021,1.866 12.297,1.547 L12.297,1.547 L12.8863333,0.859333333 C13.3656667,0.313333333 14.0526667,0 14.7776667,0 Z M14.79,1.50466667 C14.4953333,1.50466667 14.225,1.62766667 14.0346667,1.849 L14.0346667,1.849 L13.439,2.53 C12.9606667,3.076 12.273,3.38933333 11.5486667,3.38933333 C11.223,3.38933333 10.904,3.322 10.5973333,3.199 L10.5973333,3.199 L9.756,2.85566667 C9.633,2.807 9.50433333,2.78166667 9.375,2.78166667 C8.92733333,2.78166667 8.52766667,3.08266667 8.41133333,3.519 L8.41133333,3.519 L8.172,4.39633333 C7.883,5.434 6.975,6.17033333 5.90066667,6.23233333 L5.90066667,6.23233333 L4.998,6.28766667 C4.70366667,6.30566667 4.44566667,6.44066667 4.26733333,6.66766667 C4.09,6.89466667 4.016,7.177 4.07133333,7.466 L4.07133333,7.466 L4.231,8.34966667 C4.428,9.406 3.924,10.468 2.985,10.9896667 L2.985,10.9896667 L2.19333333,11.4316667 C1.94166667,11.5723333 1.76366667,11.806 1.70166667,12.0883333 C1.634,12.3706667 1.696,12.6586667 1.86766667,12.8923333 L1.86766667,12.8923333 L2.40166667,13.623 C3.04033333,14.4946667 3.046,15.6673333 2.426,16.5443333 L2.426,16.5443333 L1.90433333,17.2873333 C1.73233333,17.5206667 1.67733333,17.809 1.74466667,18.0913333 C1.812,18.3736667 1.99033333,18.6073333 2.24833333,18.7423333 L2.24833333,18.7423333 L3.046,19.172 C3.998,19.6813333 4.51333333,20.731 4.335,21.7933333 L4.335,21.7933333 L4.182,22.6893333 C4.13333333,22.972 4.20633333,23.254 4.39033333,23.481 C4.56833333,23.708 4.832,23.8376667 5.121,23.8496667 L5.121,23.8496667 L6.02933333,23.8863333 C7.10366667,23.935 8.025,24.66 8.326,25.691 L8.326,25.691 L8.57733333,26.5626667 C8.70033333,26.9856667 9.09266667,27.2813333 9.53533333,27.2813333 C9.67066667,27.2813333 9.799,27.256 9.92766667,27.2006667 L9.92766667,27.2006667 L10.7626667,26.8453333 C11.076,26.71 11.407,26.6426667 11.7513333,26.6426667 C12.4633333,26.6426667 13.1446667,26.9496667 13.6173333,27.4776667 L13.6173333,27.4776667 L14.2253333,28.153 C14.415,28.3676667 14.6796667,28.484 14.9676667,28.484 C15.2623333,28.484 15.5326667,28.3613333 15.723,28.141 L15.723,28.141 L16.3186667,27.4586667 C16.7973333,26.9126667 17.4846667,26.5993333 18.209,26.5993333 C18.5343333,26.5993333 18.8533333,26.667 19.1603333,26.79 L19.1603333,26.79 L20.0016667,27.134 C20.1246667,27.183 20.253,27.2073333 20.3826667,27.2073333 C20.8303333,27.2073333 21.2296667,26.9063333 21.3463333,26.471 L21.3463333,26.471 L21.5856667,25.5993333 C21.8676667,24.5616667 22.7823333,23.8253333 23.8566667,23.7633333 L23.8566667,23.7633333 L24.7593333,23.708 C25.0536667,23.69 25.3116667,23.555 25.49,23.3276667 C25.6673333,23.1006667 25.7413333,22.8183333 25.686,22.5293333 L25.686,22.5293333 L25.52,21.639 C25.324,20.5833333 25.827,19.5213333 26.7666667,19 L26.7666667,19 L27.5583333,18.558 C27.8096667,18.4163333 27.988,18.183 28.049,17.9003333 C28.111,17.618 28.049,17.33 27.903,17.097 L27.903,17.097 L27.369,16.3673333 C26.73,15.4946667 26.7246667,14.3226667 27.3446667,13.4446667 L27.3446667,13.4446667 L27.866,12.7016667 C28.032,12.469 28.0866667,12.18 28.019,11.8976667 C27.9516667,11.6153333 27.774,11.3816667 27.516,11.2473333 L27.516,11.2473333 L26.7176667,10.8176667 C25.7663333,10.3073333 25.2503333,9.25833333 25.4286667,8.19633333 L25.4286667,8.19633333 L25.5823333,7.29966667 C25.631,7.01733333 25.558,6.735 25.3733333,6.508 C25.1893333,6.28066667 24.9256667,6.15233333 24.6366667,6.14 L24.6366667,6.14 L23.7283333,6.10266667 C22.654,6.05366667 21.7326667,5.32933333 21.4316667,4.29833333 L21.4316667,4.29833333 L21.1803333,3.426 C21.0573333,3.003 20.665,2.70833333 20.2223333,2.70833333 C20.087,2.70833333 19.9586667,2.73266667 19.83,2.788 L19.83,2.788 L18.995,3.14366667 C18.6816667,3.27866667 18.3503333,3.34633333 18.0063333,3.34633333 C17.294,3.34633333 16.613,3.03933333 16.14,2.51133333 L16.14,2.51133333 L15.5323333,1.83666667 C15.3426667,1.622 15.078,1.50466667 14.79,1.50466667 Z M14.8753333,6.13933333 C19.7623333,6.13933333 23.7336667,10.1106667 23.7336667,14.9966667 C23.7336667,19.8766667 19.7623333,23.8546667 14.8753333,23.8546667 C9.98933333,23.8546667 6.017,19.877 6.017,14.9966667 C6.017,10.1106667 9.98933333,6.13933333 14.8753333,6.13933333 Z M14.8753333,7.643 C10.8176667,7.643 7.521,10.9456667 7.521,14.9966667 C7.521,19.0553333 10.8243333,22.351 14.8753333,22.351 C18.9273333,22.351 22.2296667,19.0486667 22.2296667,14.9966667 C22.2296667,10.9453333 18.933,7.643 14.8753333,7.643 Z M17.0546667,12.5603333 C17.3493333,12.2713333 17.8286667,12.2713333 18.1233333,12.566 C18.4113333,12.8606667 18.4113333,13.3333333 18.1166667,13.628 L18.1166667,13.628 L14.2923333,17.4283333 C14.151,17.569 13.9603333,17.649 13.7643333,17.649 C13.5616667,17.649 13.371,17.569 13.2303333,17.4283333 L13.2303333,17.4283333 L11.628,15.8196667 C11.339,15.5246667 11.339,15.052 11.6336667,14.7573333 C11.9283333,14.4626667 12.401,14.4626667 12.6956667,14.7573333 L12.6956667,14.7573333 L13.7643333,15.8316667 Z" id="Garantiya-professionalnogo-montazha"></path>
            </g>
        </g>
    </g>
</svg>