<?xml version="1.0" encoding="UTF-8"?>
<svg width="22px" height="30px" viewBox="0 0 22 30" version="1.1" xmlns="http://www.w3.org/2000/svg" xmlns:xlink="http://www.w3.org/1999/xlink">
    <title>Audit proyektnoy dokumentatsii</title>
    <g id="services-pages" stroke="none" stroke-width="1" fill="none" fill-rule="evenodd">
        <g id="icons-mini" transform="translate(-465.000000, -710.000000)" fill="#FFFFFF" fill-rule="nonzero">
            <g id="22" transform="translate(465.000000, 710.000000)">
                <path d="M12.5,0.15625 C14.90625,0.15625 16.875,1.96875 17.1875,4.28125 L17.1875,4.28125 L19.15625,4.28125 C20.28125,4.28125 21.1875,5.1875 21.1875,6.34375 L21.1875,6.34375 L21.1875,24.0625 C21.1875,25.1875 20.25,26.125 19.125,26.125 L19.125,26.125 L17.4375,26.125 L17.4375,27.8125 C17.4375,28.9375 16.5,29.875 15.375,29.875 L15.375,29.875 L2.09375,29.875 C0.96875,29.875 0.03125,28.9375 0.03125,27.8125 L0.03125,27.8125 L0.03125,10.09375 C0.03125,8.96875 0.9375,8.03125 2.09375,8.03125 L2.09375,8.03125 L3.78125,8.03125 L3.78125,6.34375 C3.78125,5.21875 4.71875,4.28125 5.84375,4.28125 L5.84375,4.28125 L7.78125,4.28125 C8.125,1.96875 10.09375,0.15625 12.5,0.15625 Z M3.8125,9.3125 L2.125,9.3125 C1.6875,9.3125 1.34375,9.65625 1.34375,10.0625 L1.34375,10.0625 L1.34375,27.78125 C1.34375,28.1875 1.6875,28.53125 2.125,28.53125 L2.125,28.53125 L15.40625,28.53125 C15.8125,28.53125 16.15625,28.1875 16.15625,27.78125 L16.15625,27.78125 L16.1875,27.78125 L16.1875,26.125 L5.875,26.125 C4.75,26.125 3.8125,25.1875 3.8125,24.0625 L3.8125,24.0625 L3.8125,9.3125 Z M7.78125,5.5625 L5.84375,5.5625 C5.4375,5.5625 5.09375,5.9375 5.09375,6.34375 L5.09375,6.34375 L5.09375,24.0625 C5.09375,24.46875 5.4375,24.8125 5.84375,24.8125 L5.84375,24.8125 L19.15625,24.8125 C19.5625,24.8125 19.90625,24.46875 19.90625,24.0625 L19.90625,24.0625 L19.90625,6.34375 C19.90625,5.90625 19.5625,5.5625 19.15625,5.5625 L19.15625,5.5625 L17.21875,5.5625 C16.90625,7.875 14.90625,9.6875 12.5,9.6875 C10.09375,9.6875 8.09375,7.875 7.78125,5.5625 L7.78125,5.5625 Z M16.78125,20.9375 C17.15625,20.9375 17.4375,21.21875 17.4375,21.59375 C17.4375,21.96875 17.125,22.25 16.78125,22.25 L16.78125,22.25 L8.1875,22.25 C7.8125,22.25 7.53125,21.9375 7.53125,21.59375 C7.53125,21.21875 7.84375,20.9375 8.1875,20.9375 L8.1875,20.9375 Z M16.78125,17.75 C17.15625,17.75 17.4375,18.03125 17.4375,18.40625 C17.4375,18.78125 17.125,19.0625 16.78125,19.0625 L16.78125,19.0625 L8.1875,19.0625 C7.8125,19.0625 7.53125,18.75 7.53125,18.40625 C7.53125,18.03125 7.84375,17.75 8.1875,17.75 L8.1875,17.75 Z M16.78125,14.53125 C17.15625,14.53125 17.4375,14.84375 17.4375,15.1875 C17.4375,15.5625 17.125,15.84375 16.78125,15.84375 L16.78125,15.84375 L8.1875,15.84375 C7.8125,15.84375 7.53125,15.53125 7.53125,15.1875 C7.53125,14.8125 7.84375,14.53125 8.1875,14.53125 L8.1875,14.53125 Z M16.78125,11.34375 C17.15625,11.34375 17.4375,11.625 17.4375,12 C17.4375,12.375 17.125,12.65625 16.78125,12.65625 L16.78125,12.65625 L8.1875,12.65625 C7.8125,12.65625 7.53125,12.34375 7.53125,12 C7.53125,11.625 7.84375,11.34375 8.1875,11.34375 L8.1875,11.34375 Z M12.5,1.46875 C10.59375,1.46875 9.03125,3.03125 9.03125,4.9375 C9.03125,6.84375 10.59375,8.40625 12.5,8.40625 C14.40625,8.40625 15.96875,6.84375 15.96875,4.9375 C15.96875,3.03125 14.40625,1.46875 12.5,1.46875 Z M13.3125,3.71875 C13.53125,3.46875 13.96875,3.4375 14.21875,3.6875 C14.46875,3.90625 14.5,4.34375 14.25,4.59375 L14.25,4.59375 L12.46875,6.5 C12.34375,6.65625 12.1875,6.71875 12,6.71875 C11.8125,6.71875 11.65625,6.625 11.53125,6.5 L11.53125,6.5 L10.59375,5.5 C10.34375,5.25 10.375,4.84375 10.625,4.59375 C10.875,4.34375 11.28125,4.375 11.53125,4.625 L11.53125,4.625 L12,5.125 Z" id="Audit-proyektnoy-dokumentatsii"></path>
            </g>
        </g>
    </g>
</svg>